<svg width="8" height="6" viewBox="0 0 8 6" fill="none" xmlns="http://www.w3.org/2000/svg">
<path d="M7.32 3.74C7.32 4.34 7.19333 4.78 6.94 5.06C6.68667 5.34 6.26 5.48 5.66 5.48C5.02 5.48 4.58 5.34 4.34 5.06C4.11333 4.78 4 4.34 4 3.74V3.58C4 2.9 4.02 2.33333 4.06 1.88C4.1 1.41333 4.21333 1.04667 4.4 0.779999C4.58667 0.5 4.86667 0.3 5.24 0.18C5.62667 0.0599998 6.16 0 6.84 0V0.959999H6.68C6.12 0.959999 5.71333 1.03333 5.46 1.18C5.22 1.32667 5.09333 1.62667 5.08 2.08C5.24 2.04 5.43333 2.02 5.66 2.02C6.26 2.02 6.68667 2.16 6.94 2.44C7.19333 2.70667 7.32 3.14 7.32 3.74ZM3.32 3.74C3.32 4.34 3.19333 4.78 2.94 5.06C2.68667 5.34 2.26 5.48 1.66 5.48C1.02 5.48 0.58 5.34 0.34 5.06C0.113333 4.78 0 4.34 0 3.74C0 3.02 0.02 2.42667 0.0600001 1.96C0.1 1.48 0.206667 1.09333 0.38 0.799999C0.566667 0.506667 0.846667 0.3 1.22 0.18C1.60667 0.0599998 2.14667 0 2.84 0V0.959999H2.68C2.12 0.959999 1.71333 1.03333 1.46 1.18C1.22 1.32667 1.09333 1.62667 1.08 2.08C1.24 2.04 1.43333 2.02 1.66 2.02C2.26 2.02 2.68667 2.16 2.94 2.44C3.19333 2.70667 3.32 3.14 3.32 3.74Z" fill="#1B1D28"/>
</svg>
